<svg width="40" height="52" viewBox="0 0 40 52" fill="none" xmlns="http://www.w3.org/2000/svg">
<g clip-path="url(#clip0_368_7226)">
<path d="M0.769043 0.769226V42.9231H30.4614V12.9231L18.3075 0.769226H0.769043Z" stroke="#FF5400" stroke-width="2" stroke-miterlimit="10" stroke-linecap="round" stroke-linejoin="round"/>
<path d="M30.7689 51.3846C35.8669 51.3846 39.9996 47.2519 39.9996 42.1538C39.9996 37.0558 35.8669 32.9231 30.7689 32.9231C25.6708 32.9231 21.5381 37.0558 21.5381 42.1538C21.5381 47.2519 25.6708 51.3846 30.7689 51.3846Z" fill="#FF5400"/>
<path d="M36.2303 42.2805H34.2303C34.2303 42.2805 34.2303 42.2805 34.2303 42.1267C34.2303 41.819 34.2303 41.3574 34.0765 41.0498H34.9996C35.1534 41.0498 35.3072 40.8959 35.4611 40.7421L36.0765 39.2036C36.2303 39.0498 36.0765 38.7421 35.9226 38.5882C35.7688 38.4344 35.4611 38.5882 35.3072 38.7421L34.6919 40.2805H33.9226C33.3072 38.7421 32.2303 37.819 30.8457 37.819C29.4611 37.819 28.3842 38.8959 27.7688 40.2805H26.8457L26.2303 39.0498C26.0765 38.8959 25.9226 38.7421 25.6149 38.8959C25.4611 39.0498 25.3072 39.2036 25.4611 39.5113L26.0765 41.0498C26.0765 41.2036 26.2303 41.3574 26.538 41.3574H27.4611C27.4611 41.6651 27.3072 41.9728 27.3072 42.4344C27.3072 42.4344 27.3072 42.4344 27.3072 42.5882H25.3072C24.9995 42.5882 24.8457 42.7421 24.8457 43.0498C24.8457 43.3574 24.9995 43.5113 25.3072 43.5113H27.4611C27.4611 43.6651 27.6149 43.9728 27.6149 44.1267H26.9995C26.8457 44.1267 26.6919 44.2805 26.538 44.4344L25.9226 45.9728C25.7688 46.1267 25.9226 46.4344 26.0765 46.5882H26.2303C26.3842 46.5882 26.538 46.4344 26.6919 46.2805L27.3072 44.7421H28.0765C28.6919 45.819 29.7688 46.5882 30.8457 46.5882C31.9226 46.5882 32.9996 45.819 33.6149 44.7421H34.2303L34.8457 45.9728C34.8457 46.1267 35.1534 46.2805 35.3072 46.2805H35.4611C35.6149 46.1267 35.7688 45.9728 35.6149 45.6651L34.9996 44.1267C34.9996 43.9728 34.8457 43.819 34.538 43.819H33.9226C33.9226 43.6651 34.0765 43.3574 34.0765 43.2036H36.2303C36.538 43.2036 36.6919 43.0498 36.6919 42.7421C36.6919 42.4344 36.538 42.2805 36.2303 42.2805ZM30.8457 45.6651C29.4611 45.6651 28.3842 44.1267 28.3842 42.1267C28.3842 40.1267 29.4611 38.5882 30.8457 38.5882C32.2303 38.5882 33.3072 40.1267 33.3072 42.1267C33.3072 44.1267 32.2303 45.6651 30.8457 45.6651Z" fill="white"/>
</g>
<defs>
<clipPath id="clip0_368_7226">
<rect width="40" height="51.3846" fill="white"/>
</clipPath>
</defs>
</svg>
