<svg width="40" height="40" viewBox="0 0 40 40" fill="none" xmlns="http://www.w3.org/2000/svg">
<path d="M20.0826 21.0699C21.0703 21.0699 21.8933 20.2469 21.8933 19.2592C21.8933 18.2716 21.0703 17.4485 20.0826 17.4485C19.095 17.4485 18.272 18.2716 18.272 19.2592C18.1073 20.2469 18.9304 21.0699 20.0826 21.0699Z" fill="#FF5400"/>
<path d="M22.2222 22.5514C22.0576 22.3868 21.893 22.3868 21.7284 22.3868C20.5761 23.0453 19.2592 23.0453 18.107 22.3868C17.9424 22.2222 17.7778 22.3868 17.6132 22.5514L13.8271 29.1358C13.8271 29.1358 13.8271 29.3004 13.8271 29.465C13.8271 29.6296 13.8271 29.6296 13.9918 29.6296C15.8025 30.6173 17.7778 31.2757 19.9177 31.2757C22.0576 31.2757 24.0329 30.7819 25.8436 29.6296L26.0082 29.465C26.0082 29.3004 26.0082 29.3004 26.0082 29.1358L22.2222 22.5514Z" fill="#FF5400"/>
<path d="M26.0082 9.0535C26.0082 9.0535 25.8436 9.0535 25.679 9.0535C25.5143 9.0535 25.5143 9.0535 25.5143 9.21811L21.7283 15.8025C21.5637 15.9671 21.7283 16.1317 21.8929 16.2963C23.0452 16.9547 23.7036 18.107 23.7036 19.4239C23.7036 19.5885 23.8683 19.7531 24.0329 19.7531H31.6049C31.7695 19.7531 31.9341 19.5885 31.9341 19.4239C31.9341 14.9794 29.6296 11.1934 26.0082 9.0535Z" fill="#FF5400"/>
<path d="M16.2963 19.2593C16.2963 17.9424 16.9547 16.7901 18.107 16.1317C18.2716 15.9671 18.2716 15.8025 18.2716 15.6379L14.4856 9.05349L14.321 8.88889C14.1564 8.88889 14.1564 8.88889 13.9918 8.88889C10.3704 11.1934 8.23047 14.9794 8.23047 19.2593C8.23047 19.4239 8.39508 19.5885 8.55969 19.5885H16.1317C16.1317 19.5885 16.2963 19.4239 16.2963 19.2593Z" fill="#FF5400"/>
<path d="M20 38C29.9411 38 38 29.9411 38 20C38 10.0589 29.9411 2 20 2C10.0589 2 2 10.0589 2 20C2 29.9411 10.0589 38 20 38Z" stroke="#FF5400" stroke-width="2" stroke-miterlimit="10"/>
</svg>
