<svg width="303" height="377" viewBox="0 0 303 377" fill="none" xmlns="http://www.w3.org/2000/svg">
<g clip-path="url(#clip0_361_3602)">
<path d="M231.109 0.852905H297.884C300.271 0.852905 302.148 2.72938 302.148 5.11761V314.735" stroke="#9494A0" stroke-width="3" stroke-miterlimit="10" stroke-linecap="round" stroke-linejoin="round"/>
<path d="M302.148 173.147V371.882C302.148 374.27 300.271 376.147 297.884 376.147H231.109" stroke="#00396B" stroke-width="3" stroke-miterlimit="10" stroke-linecap="round" stroke-linejoin="round"/>
<path d="M249.274 376.147H157.683" stroke="#FFBDA7" stroke-width="3" stroke-miterlimit="10" stroke-linecap="round" stroke-linejoin="round"/>
<path d="M132.952 376.147H5.11703C2.72919 376.147 0.853027 374.271 0.853027 371.882V5.11761C0.853027 2.72938 2.72919 0.852905 5.11703 0.852905H212.603" stroke="#000033" stroke-width="3" stroke-miterlimit="10" stroke-linecap="round" stroke-linejoin="round"/>
<path d="M262.492 92.9705H40.764C38.3762 92.9705 36.5 91.0941 36.5 88.7058V37.5294C36.5 35.1411 38.3762 33.2646 40.764 33.2646H262.492C264.88 33.2646 266.756 35.1411 266.756 37.5294V88.7058C266.756 91.0941 264.88 92.9705 262.492 92.9705Z" fill="#FF5400"/>
<path d="M119.989 173.435C119.989 176.197 122.228 178.435 124.989 178.435H178.267C181.028 178.435 183.267 176.197 183.267 173.435V123.729C183.267 120.968 181.028 118.729 178.267 118.729H124.989C122.228 118.729 119.989 120.968 119.989 123.729V173.435Z" fill="#4F4D5C"/>
<path d="M36.5 173.435C36.5 176.197 38.7386 178.435 41.5 178.435H94.7778C97.5392 178.435 99.7778 176.197 99.7778 173.435V123.729C99.7778 120.968 97.5392 118.729 94.7778 118.729H41.5C38.7386 118.729 36.5 120.968 36.5 123.729V173.435Z" fill="#4F4D5C"/>
<path d="M203 173.435C203 176.197 205.239 178.435 208 178.435H261.278C264.039 178.435 266.278 176.197 266.278 173.435V123.729C266.278 120.968 264.039 118.729 261.278 118.729H208C205.239 118.729 203 120.968 203 123.729V173.435Z" fill="#4F4D5C"/>
<path d="M119.989 254.55C119.989 257.311 122.228 259.55 124.989 259.55H178.267C181.028 259.55 183.267 257.311 183.267 254.55V204.844C183.267 202.083 181.028 199.844 178.267 199.844H124.989C122.228 199.844 119.989 202.083 119.989 204.844V254.55Z" fill="#9494A0"/>
<path d="M36.5 254.55C36.5 257.311 38.7386 259.55 41.5 259.55H94.7778C97.5392 259.55 99.7778 257.311 99.7778 254.55V204.844C99.7778 202.083 97.5392 199.844 94.7778 199.844H41.5C38.7386 199.844 36.5 202.083 36.5 204.844V254.55Z" fill="#9494A0"/>
<path d="M203 254.55C203 257.311 205.239 259.55 208 259.55H261.278C264.039 259.55 266.278 257.311 266.278 254.55V204.844C266.278 202.083 264.039 199.844 261.278 199.844H208C205.239 199.844 203 202.083 203 204.844V254.55Z" fill="#9494A0"/>
<path d="M119.989 335.579C119.989 338.341 122.228 340.579 124.989 340.579H178.267C181.028 340.579 183.267 338.341 183.267 335.579V285.873C183.267 283.112 181.028 280.873 178.267 280.873H124.989C122.228 280.873 119.989 283.112 119.989 285.873V335.579Z" fill="#C8C8D6"/>
<path d="M36.5 335.579C36.5 338.341 38.7386 340.579 41.5 340.579H94.7778C97.5392 340.579 99.7778 338.341 99.7778 335.579V285.873C99.7778 283.112 97.5392 280.873 94.7778 280.873H41.5C38.7386 280.873 36.5 283.112 36.5 285.873V335.579Z" fill="#C8C8D6"/>
<path d="M203 335.579C203 338.341 205.239 340.579 208 340.579H261.278C264.039 340.579 266.278 338.341 266.278 335.579V285.873C266.278 283.112 264.039 280.873 261.278 280.873H208C205.239 280.873 203 283.112 203 285.873V335.579Z" fill="#C8C8D6"/>
</g>
<defs>
<clipPath id="clip0_361_3602">
<rect width="303" height="377" fill="white"/>
</clipPath>
</defs>
</svg>
