<svg width="10" height="12" viewBox="0 0 10 12" fill="none" xmlns="http://www.w3.org/2000/svg">
<path d="M9.5 5.83337C9.5 8.31866 7.48528 10.3334 5 10.3334C2.51472 10.3334 0.5 8.31866 0.5 5.83337C0.5 3.34809 2.51472 1.33337 5 1.33337C7.48528 1.33337 9.5 3.34809 9.5 5.83337Z" stroke="#FF5400"/>
<path d="M5.5306 9V5.064H4.4666V9H5.5306ZM4.3386 3.776C4.3386 4.128 4.6346 4.424 4.9946 4.424C5.3626 4.424 5.6506 4.128 5.6506 3.776C5.6506 3.408 5.3626 3.112 4.9946 3.112C4.6346 3.112 4.3386 3.408 4.3386 3.776Z" fill="#FF5400"/>
</svg>
