<svg width="40" height="29" viewBox="0 0 40 29" fill="none" xmlns="http://www.w3.org/2000/svg">
<g clip-path="url(#clip0_368_7219)">
<path d="M35.3719 0H4.6281C2.14876 0 0 2.14876 0 4.79339V23.9669C0 26.6116 1.98347 28.7603 4.6281 28.9256H35.3719C38.0165 28.9256 40 26.7769 40 24.1322V4.79339C40.1653 2.14876 38.0165 0 35.3719 0ZM36.8595 1.98347L20 15.3719L3.1405 1.98347H36.8595ZM38.1818 24.1322C38.1818 25.6198 37.0248 26.9421 35.5372 27.1074H4.6281C2.97521 26.9421 1.81818 25.6198 1.81818 24.1322V3.47107L19.3388 17.3554C19.6694 17.6859 20.1653 17.6859 20.4959 17.3554L38.0165 3.47107V24.1322H38.1818Z" fill="#FF5400"/>
</g>
<defs>
<clipPath id="clip0_368_7219">
<rect width="40" height="28.9256" fill="white"/>
</clipPath>
</defs>
</svg>
