<svg width="40" height="31" viewBox="0 0 40 31" fill="none" xmlns="http://www.w3.org/2000/svg">
<g clip-path="url(#clip0_368_7195)">
<path d="M31.6951 16.609C36.2816 16.609 39.9996 12.8909 39.9996 8.3045C39.9996 3.71805 36.2816 0 31.6951 0C27.1087 0 23.3906 3.71805 23.3906 8.3045C23.3906 12.8909 27.1087 16.609 31.6951 16.609Z" fill="#FF5400"/>
<path d="M29.6194 6.6436H3.87543C1.79931 6.6436 0 8.58131 0 10.6574V26.7128C0 28.9273 1.6609 30.7266 3.87543 30.8651H29.6194C31.8339 30.8651 33.4948 29.0657 33.4948 26.8512V10.7958C33.6332 8.58131 31.8339 6.78201 29.6194 6.6436ZM30.8651 8.3045L16.8858 19.5156L2.62976 8.3045H30.8651ZM31.9723 26.8512C31.9723 28.0969 31.0035 29.2042 29.7578 29.3426H3.87543C2.49135 29.2042 1.52249 28.0969 1.52249 26.8512V9.55017L16.1938 21.1765C16.4706 21.4533 16.8858 21.4533 17.1626 21.1765L31.8339 9.55017V26.8512H31.9723Z" fill="#FF5400"/>
<path d="M36.6094 8.41848H34.8101C34.8101 8.41848 34.8101 8.41848 34.8101 8.28007C34.8101 8.00326 34.8101 7.58803 34.6717 7.31121H35.5021C35.6405 7.31121 35.779 7.17281 35.9174 7.0344L36.471 5.65032C36.6094 5.51191 36.471 5.23509 36.3326 5.09668C36.1942 4.95827 35.9174 5.09668 35.779 5.23509L35.2253 6.34236H34.5333C33.9796 4.95828 33.0108 4.12782 31.7651 4.12782C30.5194 4.12782 29.5506 5.09668 28.9969 6.34236H28.1665L27.6129 5.23509C27.4745 5.09668 27.336 4.95827 27.0592 5.09668C26.9208 5.23509 26.7824 5.3735 26.9208 5.65032L27.4745 7.0344C27.4745 7.17281 27.6129 7.31121 27.8897 7.31121H28.7201C28.7201 7.58803 28.5817 7.86485 28.5817 8.28007C28.5817 8.28007 28.5817 8.28007 28.5817 8.41848H26.7824C26.5056 8.41848 26.3672 8.55689 26.3672 8.83371C26.3672 9.11052 26.5056 9.24893 26.7824 9.24893H28.7201C28.7201 9.38734 28.8585 9.66416 28.8585 9.80256H28.3049C28.1665 9.80256 28.0281 9.94097 27.8897 10.0794L27.336 11.4635C27.1976 11.6019 27.336 11.8787 27.4745 12.0171H27.6129C27.7513 12.0171 27.8897 11.8787 28.0281 11.7403L28.5817 10.633H29.2738C29.8274 11.6019 30.6578 12.2939 31.7651 12.2939C32.8724 12.2939 33.7028 11.6019 34.2565 10.633H34.8101L35.3637 11.7403C35.3637 11.8787 35.6405 12.0171 35.779 12.0171H35.9174C36.0558 11.8787 36.1942 11.7403 36.0558 11.4635L35.5021 10.0794C35.5021 9.94097 35.3637 9.80256 35.0869 9.80256H34.5333C34.5333 9.66416 34.6717 9.38734 34.6717 9.24893H36.6094C36.8862 9.24893 37.0246 9.11052 37.0246 8.83371C37.0246 8.55689 36.8862 8.41848 36.6094 8.41848ZM31.7651 11.4635C30.5194 11.4635 29.5506 10.0794 29.5506 8.28007C29.5506 6.48077 30.5194 5.09668 31.7651 5.09668C33.0108 5.09668 33.9796 6.48077 33.9796 8.28007C33.9796 10.0794 33.0108 11.4635 31.7651 11.4635Z" fill="white"/>
</g>
<defs>
<clipPath id="clip0_368_7195">
<rect width="40" height="30.8651" fill="white"/>
</clipPath>
</defs>
</svg>
